<svg xmlns="http://www.w3.org/2000/svg" xmlns:xlink="http://www.w3.org/1999/xlink" id="Calque_1" x="0" y="0" version="1.1" viewBox="0 0 200 200" xml:space="preserve" style="enable-background:new 0 0 200 200"><style type="text/css">.st0{fill:#fff;stroke:#79bb82;stroke-width:2;stroke-miterlimit:10}.st1{fill:#bfbfb3}.st2{fill:#79bb82}.st3{fill:#03723f}.st4{fill:#fff}</style><ellipse cx="97.5" cy="90.2" class="st0" rx="67.6" ry="79.2"/><path d="M143.9,84.2H116c-0.3,0-0.6-0.3-0.6-0.6V7.7c0-0.3,0.3-0.6,0.6-0.6h27.8c0.3,0,0.6,0.3,0.6,0.6v75.9	C144.5,83.9,144.2,84.2,143.9,84.2z" class="st1"/><path d="M168.5,31.7v27.8c0,0.3-0.3,0.6-0.6,0.6H92c-0.3,0-0.6-0.3-0.6-0.6V31.7c0-0.3,0.3-0.6,0.6-0.6h75.9	C168.2,31.1,168.5,31.4,168.5,31.7z" class="st1"/><g><path d="M49.5,83.3v-0.7c0.4-0.1,0.8-0.2,1-0.3c0.2-0.1,0.4-0.3,0.5-0.4c0.1-0.2,0.2-0.4,0.2-0.8c0-0.3,0-0.6-0.1-1 c-0.1-0.4-0.2-0.7-0.3-1.2l-0.5-1.7h-6.3l-0.5,1.3c-0.2,0.7-0.4,1.2-0.5,1.5c-0.1,0.3-0.1,0.6-0.1,0.9c0,0.5,0.1,0.9,0.4,1.2 c0.3,0.3,0.7,0.4,1.3,0.5v0.7h-5.7v-0.7c0.5-0.1,0.9-0.4,1.3-0.9c0.4-0.5,0.7-1.2,1.1-2.1l5.6-14.9H49l4.6,15 c0.2,0.7,0.4,1.2,0.6,1.6c0.2,0.4,0.4,0.7,0.6,0.9c0.2,0.2,0.6,0.4,1,0.5v0.7H49.5z M44.3,76.1h5.6l-2.6-8.7L44.3,76.1z" class="st2"/><path d="M58.9,83.3v-0.7c0.4-0.1,0.7-0.2,0.9-0.3c0.2-0.1,0.3-0.2,0.4-0.4c0.1-0.2,0.2-0.4,0.2-0.7 c0-0.3,0.1-0.7,0.1-1.4V68.4c0-0.6,0-1.1-0.1-1.4c0-0.3-0.1-0.5-0.2-0.7c-0.1-0.2-0.2-0.3-0.4-0.4c-0.2-0.1-0.5-0.2-0.9-0.3V65h5.9 c1.7,0,3.1,0.2,4.2,0.6c1.1,0.4,2,0.9,2.7,1.6c0.7,0.7,1.3,1.6,1.7,2.7c0.4,1.1,0.6,2.4,0.6,3.9c0,1.5-0.2,2.8-0.5,4 c-0.3,1.2-0.8,2.1-1.5,2.9c-0.6,0.7-1.3,1.2-2.1,1.7c-0.7,0.4-1.5,0.6-2.4,0.8c-0.9,0.2-2.1,0.2-3.6,0.2H58.9z M63,82.1 c0.4,0,0.9,0.1,1.6,0.1c0.8,0,1.4-0.1,2-0.2c0.6-0.1,1.1-0.3,1.6-0.6s0.9-0.6,1.3-1.1c0.4-0.5,0.7-1,0.9-1.7 c0.2-0.6,0.4-1.3,0.5-2.1c0.1-0.8,0.2-1.6,0.2-2.5c0-1.8-0.3-3.3-0.8-4.5c-0.5-1.2-1.3-2-2.2-2.6c-1-0.5-2.1-0.8-3.4-0.8 c-0.6,0-1.2,0-1.7,0.1V82.1z" class="st2"/><path d="M85.6,83.6c-1.1,0-2.1-0.2-2.9-0.5c-0.9-0.4-1.6-0.9-2.3-1.7c-0.6-0.7-1.1-1.7-1.5-2.9 c-0.3-1.2-0.5-2.6-0.5-4.2c0-2,0.3-3.7,0.9-5.1c0.6-1.4,1.5-2.5,2.6-3.3c1.1-0.7,2.4-1.1,3.9-1.1c1.6,0,2.9,0.4,4,1.1 c1.1,0.7,1.9,1.7,2.5,3.1c0.6,1.4,0.8,3,0.8,5c0,2.1-0.3,3.9-0.9,5.3c-0.6,1.4-1.5,2.5-2.7,3.2C88.5,83.2,87.2,83.6,85.6,83.6z M81.2,73.9c0,2.7,0.4,4.8,1.2,6.3c0.8,1.4,2,2.1,3.5,2.1c1,0,1.8-0.3,2.5-0.9c0.7-0.6,1.2-1.5,1.5-2.7c0.3-1.2,0.5-2.6,0.5-4.2 c0-2-0.2-3.6-0.6-4.9c-0.4-1.3-0.9-2.2-1.6-2.8c-0.7-0.6-1.5-0.9-2.4-0.9c-0.8,0-1.5,0.2-2.1,0.6c-0.6,0.4-1.1,0.9-1.4,1.6 c-0.4,0.7-0.7,1.5-0.8,2.5C81.3,71.6,81.2,72.7,81.2,73.9z" class="st2"/><path d="M101.9,79.9c0,0.5,0,0.9,0.1,1.3c0.1,0.3,0.1,0.6,0.3,0.7c0.1,0.2,0.3,0.3,0.5,0.4c0.2,0.1,0.5,0.2,1,0.3v0.7 h-5.9v-0.7c0.6-0.1,0.9-0.3,1.1-0.5c0.2-0.2,0.3-0.4,0.4-0.7c0.1-0.3,0.1-0.8,0.1-1.5V68.4c0-0.6,0-1.1-0.1-1.3 c0-0.3-0.1-0.5-0.2-0.7c-0.1-0.2-0.2-0.3-0.4-0.4c-0.2-0.1-0.5-0.2-0.9-0.3V65h6.7c2.1,0,3.7,0.4,4.7,1.2c1,0.8,1.5,2,1.5,3.7 c0,0.9-0.2,1.8-0.5,2.5c-0.3,0.7-0.8,1.4-1.4,1.8c-0.6,0.5-1.3,0.8-2.1,1c-0.8,0.2-1.7,0.3-2.5,0.3c-1,0-1.8,0-2.3-0.1V79.9z M101.9,74.4h1.6c1,0,1.8-0.1,2.5-0.4c0.7-0.3,1.2-0.7,1.5-1.3c0.3-0.6,0.5-1.4,0.5-2.4c0-0.8-0.1-1.4-0.3-1.9 c-0.2-0.5-0.5-0.9-0.9-1.2c-0.4-0.3-0.8-0.5-1.3-0.7c-0.5-0.1-1-0.2-1.6-0.2c-0.9,0-1.6,0-2,0.1V74.4z" class="st2"/></g><path d="M60.5,175.8c0,0,19.2,6.2,13.5,20.2c0,0,19.4-13.3,20-15.6c0,0,11.9-15.7,23.4-23.8c0,0,5.9-2.6,4.7-11.2	c0,0-2.1-32.9,18.6-44.9c0,0,4.7-3.9-5.7-5.2c0,0-16.8,6-25.6,28.4c0,0-4.3,13.4-5.5,14.3c0,0-7.7,9.7-17.7,13.9	c0,0-11.2,0.8-11.9-8.6c0,0,1.5-4.5,5.6-7.2c0,0,10.6-17.7,3.9-24.7c0,0-2.8-0.9-2.9,1c0,0-3.4,16.3-21.6,21.9	c0,0-3.9,10.7-4.9,24.1C54.4,158.2,54.5,169.6,60.5,175.8z" class="st3"/><ellipse cx="86.9" cy="140.8" class="st4" rx="15.3" ry="9.3" transform="matrix(0.7809 -0.6247 0.6247 0.7809 -68.8952 85.1139)"/><ellipse cx="137.5" cy="98.2" class="st3" rx="4.6" ry="3.3"/><ellipse cx="83.3" cy="115.1" class="st3" rx="2.7" ry="4.3" transform="matrix(0.9737 -0.2278 0.2278 0.9737 -24.0238 21.992)"/></svg>